<?xml version="1.0" encoding="UTF-8" standalone="no"?>
<!DOCTYPE svg PUBLIC "-//W3C//DTD SVG 1.1//EN" "http://www.w3.org/Graphics/SVG/1.1/DTD/svg11.dtd">
<svg width="100%" height="100%" viewBox="0 0 1828 1788" version="1.1" xmlns="http://www.w3.org/2000/svg" xmlns:xlink="http://www.w3.org/1999/xlink" xml:space="preserve" xmlns:serif="http://www.serif.com/" style="fill-rule:evenodd;clip-rule:evenodd;stroke-linejoin:round;stroke-miterlimit:2;">
    <rect id="ArtBoard1" x="0" y="0" width="1828" height="1788" style="fill:none;"/>
    <g id="ArtBoard11" serif:id="ArtBoard1">
        <g transform="matrix(17.361113,0,0,17.361113,-557.153936,-449.619899)">
            <rect x="42.12" y="34.649" width="83.906" height="18.434"/>
        </g>
        <g transform="matrix(17.361113,0,0,17.361113,-557.153936,-449.619899)">
            <path d="M116.662,66.807C116.624,66.807 116.587,66.812 116.548,66.812L51.744,66.812C51.672,66.811 51.601,66.802 51.529,66.802C51.457,66.802 51.387,66.811 51.315,66.812L51.062,66.812L51.062,66.825C46.118,67.066 42.183,71.083 42.183,76.02C42.183,80.955 46.118,84.973 51.062,85.214L51.062,85.238L116.619,85.238L116.619,85.236C116.633,85.236 116.648,85.238 116.662,85.238C121.823,85.238 126.006,81.112 126.006,76.022C126.006,70.932 121.823,66.807 116.662,66.807Z" style="fill-rule:nonzero;"/>
        </g>
        <g transform="matrix(17.361113,0,0,17.361113,-557.153936,-449.619899)">
            <path d="M102.286,120.136C101.784,120.136 101.278,120.13 100.765,120.12C93.346,120.348 86.989,117.655 81.354,115.271C76.742,113.319 72.761,111.628 69.006,111.723C61.131,112.469 59.494,113.183 50.478,119.58L40.93,106.124C51.757,98.442 56.038,96.363 67.711,95.272L68.14,95.243C75.636,94.932 82.089,97.666 87.784,100.077C92.483,102.064 96.538,103.78 100.358,103.624L100.613,103.614L100.868,103.619C105.51,103.71 108.559,103.776 119.25,96.82L128.248,110.65C115.409,119.004 109.226,120.136 102.286,120.136Z" style="fill-rule:nonzero;"/>
        </g>
    </g>
</svg>
