<svg id="Ebene_1" data-name="Ebene 1" xmlns="http://www.w3.org/2000/svg" viewBox="0 0 1400 1038"><title>Anfahrt_Karte_slf_Berlin_RZ</title><path d="M515.94,774l-7.08,1.3,1.43,7.8-2.71.5-3.27-17.87,2.71-.49,1.4,7.65,7.08-1.29-1.4-7.66,2.71-.49,3.27,17.86-2.71.5Z"/><path d="M524.46,774.92a2.9,2.9,0,0,0,3.61,2.58,4.11,4.11,0,0,0,2.56-1.74l2.14,1.24a5.94,5.94,0,0,1-4.21,2.9c-2.61.48-5.88-.23-6.83-5.44-.91-5,1.58-7.06,4-7.51a5.25,5.25,0,0,1,6.23,4.41l.39,2.11Zm5-3.09c-.43-1.92-1.72-2.75-3.23-2.47s-2.44,1.51-2.14,3.45Z"/><path d="M533.62,765.67l2.57-.47.24,1.35h.05a4.15,4.15,0,0,1,3-2.12,4.36,4.36,0,0,1,2.84.5l-1.46,2.54a2.54,2.54,0,0,0-1.79-.32,2.46,2.46,0,0,0-2,3.12l1.4,7.65-2.56.47Z"/><path d="M543.28,763.9l2.56-.47.25,1.36h0a4.15,4.15,0,0,1,3-2.11,4.29,4.29,0,0,1,2.84.49l-1.46,2.55a2.49,2.49,0,0,0-1.79-.32,2.45,2.45,0,0,0-2,3.11l1.4,7.65-2.56.47Z"/><path d="M553.7,764l-1.28.23-.36-2,1.28-.23-.3-1.68a3.22,3.22,0,0,1,2.82-4.1l1.66-.3.44,2.41-1.45.26c-.83.16-1.06.48-.91,1.26l.3,1.68,2.56-.47.36,2-2.56.47,2,10.76-2.56.47Z"/><path d="M559.82,760.88l2.56-.47,1.38,7.58a2.58,2.58,0,1,0,5-.93l-1.39-7.57L570,759l2.33,12.72-2.56.47-.25-1.36h0a4.12,4.12,0,0,1-3,2.11,4.35,4.35,0,0,1-5.08-3.64Z"/><path d="M573.19,758.43l2.56-.47.24,1.36h0a4.15,4.15,0,0,1,3-2.11,4.29,4.29,0,0,1,2.84.49l-1.45,2.55a2.58,2.58,0,0,0-1.8-.32,2.44,2.44,0,0,0-2,3.11l1.4,7.65-2.57.47Z"/><path d="M582.29,752.77l2.56-.46.7,3.86,1.86-.34.36,2-1.86.34,1.35,7.4c.13.7.46.9,1.08.79l1-.18.44,2.41-1.33.24a3,3,0,0,1-3.66-2.57l-1.39-7.63-1.29.24-.35-2,1.28-.23Z"/><path d="M588.78,750.26l2.56-.46,1.19,6.5h0a4.13,4.13,0,0,1,3-2.12,4.35,4.35,0,0,1,5,3.65l1.55,8.45-2.56.47-1.39-7.58a2.57,2.57,0,1,0-5,.92l1.38,7.58-2.56.47Z"/><path d="M603.59,757.51l7.54-1.38.47,2.56-7.55,1.38Z"/><path d="M539.8,795.65l2.55-.47.25,1.33a4.54,4.54,0,0,1,3-2.08,4.2,4.2,0,0,1,3.72,1c.87.77,1.22,1.57,1.79,4.7s.52,4,0,5a4.22,4.22,0,0,1-3.11,2.28,4.73,4.73,0,0,1-3.56-.9l1.18,6.5-2.56.47Zm8.76,5c-.36-2-.85-3.94-3.26-3.5s-2.12,2.57-1.78,4.42.85,3.92,3.23,3.48S548.92,802.59,548.56,800.63Z"/><path d="M551.77,788.14l2.56-.47L557,802.25a.83.83,0,0,0,1.11.7l.88-.16.44,2.41-1.13.21c-1.85.34-3.41-.21-3.83-2.49Z"/><path d="M567.88,802.49h0c-.36,1-1.17,1.54-2.9,1.85-2.84.52-4.8-.86-5.2-3.06-.38-2,.71-4,3.45-4.53l3.54-.64-.25-1.33c-.22-1.21-1.07-1.49-2.91-1.16-1.33.25-1.91.61-2.23,1.42l-2.28-1.16a4.89,4.89,0,0,1,4-2.64c3.14-.57,5.49.08,6.06,3.22l1.59,8.68-2.56.47Zm-.78-4.26-3.06.56c-1.5.27-2.1,1-1.93,1.93s1,1.48,2.71,1.17c2.13-.4,2.82-.75,2.45-2.74Z"/><path d="M571,786l2.56-.47.71,3.87,1.85-.34.36,2-1.85.34,1.35,7.41c.13.7.45.9,1.08.79l1-.18.44,2.41-1.33.24a3,3,0,0,1-3.66-2.57L572,791.77l-1.28.24-.36-2,1.28-.23Z"/><path d="M579.53,799.43l4.83-9.6-6,1.1-.42-2.26,9.14-1.67.37,2-4.86,9.45,6.37-1.16.44,2.4-9.48,1.74Z"/><path d="M549.63,489.06a8.49,8.49,0,0,0-.81,5.41c.42,2.2,1.68,3.34,3.15,3.06a2.38,2.38,0,0,0,2-2.79c-.06-.82-.07-1.47-.12-2.42-.17-3.16,1.52-5.2,4.1-5.69,3.06-.58,5.62,1.14,6.32,4.82a10.61,10.61,0,0,1-.75,6.14L561,496.51a8.46,8.46,0,0,0,.54-4.67c-.31-1.65-1.42-2.82-3.12-2.49-1,.19-1.87,1.1-1.8,3,0,.49,0,1.19.11,2.06.23,3.41-1.78,5.4-4.21,5.87-3.28.62-5.65-1.45-6.38-5.28a10.15,10.15,0,0,1,1.16-7.28Z"/><path d="M551.77,512.68a6,6,0,0,1-3.07-4.14c-.56-2.93.75-6.12,5.39-7s7,1.59,7.61,4.52a6.07,6.07,0,0,1-1.33,5l-2-1.56a3.4,3.4,0,0,0,.84-2.84c-.4-2.07-1.81-3.08-4.59-2.55s-3.7,2-3.31,4.06a3.42,3.42,0,0,0,1.82,2.33Z"/><path d="M567.88,511.34l.49,2.56-6.5,1.24v.05a4.11,4.11,0,0,1,2.14,3,4.34,4.34,0,0,1-3.6,5.07L552,524.89l-.48-2.55,7.56-1.45a2.57,2.57,0,1,0-1-5l-7.57,1.44-.48-2.56Z"/><path d="M565.3,525.75l.49,2.55-12.71,2.43-.48-2.56Zm5.14-1,.48,2.56-2.55.48-.49-2.55Z"/><path d="M571.55,530.6l.49,2.56-14.56,2.78a.83.83,0,0,0-.7,1.12l.17.87-2.4.46-.22-1.13c-.35-1.85.18-3.41,2.46-3.84Z"/><path d="M572.76,537l.49,2.56-14.56,2.77c-.58.11-.81.5-.7,1.12l.17.88-2.4.46-.22-1.13c-.35-1.85.18-3.41,2.47-3.85Z"/><path d="M561.89,547.63a2.91,2.91,0,0,0-2.56,3.63,4.07,4.07,0,0,0,1.76,2.55L559.87,556a5.94,5.94,0,0,1-2.93-4.19c-.5-2.61.17-5.87,5.39-6.87,4.93-.94,7.07,1.53,7.53,4a5.24,5.24,0,0,1-4.36,6.26l-2.1.4Zm3.13,5c1.91-.44,2.73-1.74,2.44-3.24s-1.53-2.43-3.47-2.12Z"/><path d="M571.2,556.74l.49,2.55-1.35.26v.05a4.11,4.11,0,0,1,2.13,3,4.22,4.22,0,0,1-.47,2.84L569.46,564a2.56,2.56,0,0,0,.3-1.8,2.46,2.46,0,0,0-3.13-2L559,561.71l-.49-2.55Z"/><path d="M573,566.38l.49,2.56-1.32.25a4.58,4.58,0,0,1,2.1,3,4.21,4.21,0,0,1-1,3.72c-.76.88-1.55,1.23-4.69,1.83s-4,.55-5,0a4.23,4.23,0,0,1-2.31-3.09,4.76,4.76,0,0,1,.88-3.57l-6.49,1.24-.49-2.56Zm-4.91,8.81c2-.38,3.93-.88,3.48-3.29s-2.59-2.1-4.44-1.75-3.91.88-3.46,3.26S566.17,575.56,568.13,575.19Z"/><path d="M575.5,579.28l.49,2.56-1.35.25v0a4.18,4.18,0,0,1,2.13,3,4.29,4.29,0,0,1-.47,2.84l-2.56-1.44a2.53,2.53,0,0,0,.31-1.79,2.46,2.46,0,0,0-3.13-2l-7.64,1.46-.49-2.56Z"/><path d="M576,590a5.49,5.49,0,0,1,1.47,7.72c-.89,1.18-1.87,1.78-4.6,2.3s-3.89.33-5.15-.45a5.48,5.48,0,0,1-1.47-7.71c.89-1.19,1.87-1.79,4.62-2.31S574.74,589.19,576,590Zm-.73,6.27a2.64,2.64,0,0,0,.53-2.23,2.61,2.61,0,0,0-1.31-1.88c-.77-.35-1.3-.41-3.13-.06s-2.33.6-2.91,1.21a2.59,2.59,0,0,0-.54,2.23,2.64,2.64,0,0,0,1.32,1.88c.77.34,1.3.4,3.13,0S574.7,596.83,575.28,596.23Z"/><path d="M579.74,601.5l.48,2.56-1.35.25v.05a4.16,4.16,0,0,1,2.14,3,4.6,4.6,0,0,1-1,3.89,5.1,5.1,0,0,1,2.41,3.7,4.33,4.33,0,0,1-3.6,5.07l-8.44,1.61-.49-2.55,7.57-1.45a2.57,2.57,0,1,0-1-5L569,614.07l-.49-2.56,7.57-1.44a2.57,2.57,0,1,0-1-5l-7.57,1.45-.49-2.56Z"/><path d="M576.81,625.92a2.9,2.9,0,0,0-2.56,3.63,4.08,4.08,0,0,0,1.76,2.54l-1.22,2.16a6,6,0,0,1-2.93-4.2c-.5-2.6.18-5.87,5.39-6.87,4.93-.94,7.07,1.54,7.54,4a5.24,5.24,0,0,1-4.37,6.25l-2.1.4Zm3.13,5c1.91-.45,2.73-1.74,2.44-3.24s-1.53-2.44-3.47-2.12Z"/><path d="M586.12,635l.49,2.55-1.35.26v0a4.11,4.11,0,0,1,2.13,3,4.34,4.34,0,0,1-3.6,5.08l-8.44,1.61-.49-2.56,7.57-1.44a2.57,2.57,0,1,0-1-5L573.91,640l-.49-2.56Z"/><path d="M578.37,657.24l0,0c-1-.36-1.54-1.16-1.87-2.89-.54-2.83.83-4.8,3-5.22,2-.39,4,.68,4.55,3.42l.67,3.53,1.33-.25c1.2-.23,1.48-1.09,1.13-2.92-.25-1.33-.62-1.91-1.44-2.22l1.15-2.3a4.89,4.89,0,0,1,2.67,3.94c.6,3.13,0,5.48-3.17,6.08L577.72,660l-.48-2.55Zm4.26-.81-.59-3.06c-.28-1.5-1-2.09-1.95-1.91s-1.47,1-1.14,2.71c.4,2.13.77,2.81,2.75,2.44Z"/><path d="M581.11,670.56a4.55,4.55,0,0,1-2.1-3,4.21,4.21,0,0,1,1-3.72c.77-.87,1.56-1.23,4.69-1.83s4-.55,5,0a4.23,4.23,0,0,1,2.3,3.09,4.75,4.75,0,0,1-.88,3.57l6.49-1.23.49,2.55-17.84,3.4-.49-2.55Zm4.08-6c-2,.38-3.94.88-3.48,3.28s2.58,2.11,4.44,1.76,3.91-.88,3.46-3.26S587.14,664.19,585.19,664.56Z"/><path d="M586.55,677a2.91,2.91,0,0,0-2.56,3.63,4.1,4.1,0,0,0,1.76,2.55l-1.22,2.15a6,6,0,0,1-2.93-4.19c-.5-2.61.18-5.88,5.39-6.87,4.93-.94,7.07,1.53,7.54,4a5.26,5.26,0,0,1-4.37,6.26l-2.1.4Zm3.13,5c1.91-.44,2.73-1.74,2.44-3.24s-1.53-2.44-3.47-2.12Z"/><path d="M759.76,473.4l.53,2.86-12.17,5.16v.05l13.33,1.11.36,2-12.05,5.81v0l13.21.46.53,2.86-18.68-1.16-.42-2.26,12.24-5.79,0-.05-13.49-1-.42-2.26Z"/><path d="M751.75,499.78a2.9,2.9,0,0,0-2.57,3.62,4.08,4.08,0,0,0,1.74,2.56l-1.23,2.15a6,6,0,0,1-2.91-4.21c-.48-2.61.21-5.88,5.43-6.85,4.94-.91,7.06,1.58,7.52,4a5.26,5.26,0,0,1-4.4,6.24l-2.11.39Zm3.11,5c1.91-.43,2.74-1.72,2.46-3.23s-1.52-2.44-3.46-2.14Z"/><path d="M761,509l.47,2.55-12.72,2.36-.47-2.56Zm5.14-.95.47,2.55-2.55.48-.48-2.56Z"/><path d="M753.36,516.86a5.47,5.47,0,0,0-.89,4.32c.27,1.45,1,2.4,2.1,2.21.9-.17,1-.9,1-1.79l-.22-2.3c-.22-2.14.75-3.93,2.93-4.33,2.58-.48,4.29,1.33,4.79,4a7.37,7.37,0,0,1-.8,5.31l-2.15-1.24a5.77,5.77,0,0,0,.54-3.63c-.3-1.63-1-2.06-1.93-1.9-.55.11-1,.61-.89,1.91l.24,2.13c.31,2.67-1.1,4-3.13,4.4-2.49.46-4.34-1.59-4.89-4.55a8.12,8.12,0,0,1,1.25-6Z"/><path d="M757.37,530.07a2.9,2.9,0,0,0-2.58,3.62,4.06,4.06,0,0,0,1.75,2.56l-1.24,2.15a6,6,0,0,1-2.91-4.21c-.48-2.61.21-5.88,5.43-6.85,4.94-.91,7.06,1.57,7.52,4a5.25,5.25,0,0,1-4.4,6.24l-2.1.39Zm3.1,5c1.91-.43,2.74-1.72,2.46-3.23s-1.52-2.44-3.46-2.14Z"/><path d="M757.88,541.24a5.36,5.36,0,0,0-.89,4.31c.27,1.45,1,2.41,2.09,2.21.91-.17,1.06-.9,1-1.79l-.22-2.3c-.21-2.14.75-3.92,2.93-4.33,2.59-.48,4.3,1.33,4.8,4a7.42,7.42,0,0,1-.81,5.31l-2.15-1.24a5.74,5.74,0,0,0,.55-3.62c-.3-1.63-1.06-2.07-1.93-1.9-.55.1-1,.6-.9,1.9l.24,2.14a3.59,3.59,0,0,1-3.13,4.39c-2.48.46-4.34-1.58-4.89-4.54a8.14,8.14,0,0,1,1.25-6Z"/><path d="M772.74,550.59l.47,2.56-3.86.71.34,1.86-2,.36-.35-1.85L760,555.6c-.7.13-.9.45-.78,1.08l.17,1-2.4.45-.25-1.33a3,3,0,0,1,2.56-3.67l7.63-1.41-.24-1.28,2-.36.23,1.28Z"/><path d="M770.12,558l.48,2.56-1.36.25v0a4.12,4.12,0,0,1,2.12,3,4.29,4.29,0,0,1-.49,2.84l-2.55-1.45a2.54,2.54,0,0,0,.32-1.79,2.45,2.45,0,0,0-3.12-2l-7.65,1.41-.48-2.56Z"/><path d="M761.56,576.5v0c-1-.36-1.54-1.17-1.86-2.89-.53-2.84.85-4.81,3-5.22,2-.37,4,.71,4.53,3.44l.66,3.54,1.33-.24c1.2-.23,1.48-1.08,1.14-2.91-.24-1.33-.61-1.92-1.42-2.23l1.16-2.29a4.9,4.9,0,0,1,2.65,3.94c.58,3.14-.07,5.49-3.21,6.07l-8.68,1.61-.47-2.56Zm4.26-.79-.56-3.06c-.28-1.5-1-2.09-2-1.92s-1.47,1-1.15,2.7c.39,2.13.75,2.82,2.73,2.46Z"/><path d="M774.47,585l.28,1.53c.16.83.63,1.29,1.73,1.08a1.7,1.7,0,0,0,1.28-.65,4,4,0,0,0,.12-2.31c-.39-1.84-1-2.37-2.07-2.23L762,585l-.47-2.56,13.84-2.56c2.81-.52,4.59,1.49,5.16,4.57.53,2.91-.75,5.22-3.33,5.7a2.92,2.92,0,0,1-3.18-1.3,2.76,2.76,0,0,1-2.44,2.34L767,592a3.53,3.53,0,0,1-4.27-2.86l-.29-1.58,2.41-.45.16.9c.23,1.23.64,1.6,1.64,1.41l4.47-.82c1-.18,1.4-.68,1.22-1.68l-.28-1.48Z"/><path d="M769.72,596.77a2.9,2.9,0,0,0-2.57,3.62,4.07,4.07,0,0,0,1.75,2.55l-1.24,2.15a6,6,0,0,1-2.91-4.21c-.48-2.6.21-5.87,5.43-6.84,4.94-.91,7.06,1.57,7.52,4a5.26,5.26,0,0,1-4.4,6.24l-2.11.39Zm3.11,5c1.91-.44,2.74-1.73,2.46-3.23s-1.52-2.45-3.46-2.14Z"/><path d="M982.7,393.27l-1.45-7-7.77,1.59-.56-2.7,17.79-3.65.56,2.7-7.62,1.56,1.45,7,7.62-1.56.55,2.69-17.79,3.66-.56-2.7Z"/><path d="M982,401.8a2.89,2.89,0,0,0-2.5,3.67,4,4,0,0,0,1.79,2.51l-1.19,2.18a6,6,0,0,1-3-4.16c-.53-2.59.09-5.87,5.29-6.94,4.92-1,7.09,1.43,7.6,3.88a5.26,5.26,0,0,1-4.28,6.32l-2.1.43Zm3.2,4.91c1.9-.47,2.7-1.78,2.4-3.28s-1.57-2.41-3.5-2.07Z"/><path d="M991.4,410.76l.52,2.55-1.35.28v.05a4.13,4.13,0,0,1,2.18,3,4.32,4.32,0,0,1-.43,2.85l-2.58-1.4a2.55,2.55,0,0,0,.28-1.8,2.46,2.46,0,0,0-3.16-1.93l-7.62,1.57-.52-2.55Z"/><path d="M993.41,420.53l.52,2.55-1.35.27v.06a4.15,4.15,0,0,1,2.18,3,4.59,4.59,0,0,1-.92,3.91,5,5,0,0,1,2.47,3.66,4.33,4.33,0,0,1-3.53,5.12l-8.42,1.73-.52-2.55,7.54-1.55a2.57,2.57,0,1,0-1-5l-7.54,1.55-.53-2.55,7.55-1.55a2.57,2.57,0,1,0-1-5l-7.54,1.55-.53-2.55Z"/><path d="M987.55,450.58v-.05c-1-.34-1.56-1.14-1.92-2.86-.58-2.82.76-4.82,3-5.27,2-.41,4,.63,4.59,3.35l.72,3.53,1.33-.27c1.2-.25,1.46-1.11,1.09-2.94-.27-1.32-.65-1.9-1.47-2.2l1.12-2.31a4.88,4.88,0,0,1,2.72,3.9c.64,3.12,0,5.48-3.09,6.12L987,453.36l-.53-2.55Zm4.25-.87-.63-3c-.31-1.5-1-2.08-2-1.89s-1.46,1-1.1,2.73c.43,2.12.81,2.8,2.78,2.4Z"/><path d="M1000.27,454l.53,2.55-1.35.28v.05a4.12,4.12,0,0,1,2.17,3,4.33,4.33,0,0,1-3.53,5.12l-8.42,1.73-.52-2.55,7.55-1.54a2.58,2.58,0,1,0-1-5l-7.54,1.55-.53-2.55Z"/><path d="M1003,467.27l.52,2.55-1.35.27v.05a4.15,4.15,0,0,1,2.18,3,4.33,4.33,0,0,1-3.53,5.13L992.42,480l-.52-2.55,7.54-1.55a2.57,2.57,0,1,0-1-5l-7.55,1.55-.52-2.55Z"/><path d="M997,482.76a5.42,5.42,0,0,0-.81,4.33c.3,1.45,1.07,2.39,2.14,2.17.9-.18,1-.91.93-1.81l-.26-2.29c-.26-2.13.68-3.94,2.85-4.39,2.57-.52,4.32,1.26,4.87,3.93a7.43,7.43,0,0,1-.7,5.32l-2.18-1.19a5.73,5.73,0,0,0,.48-3.64c-.34-1.62-1.1-2-2-1.86-.55.11-1,.63-.86,1.92l.28,2.13c.37,2.66-1,4-3,4.45-2.47.51-4.37-1.49-5-4.44a8.14,8.14,0,0,1,1.13-6Z"/><path d="M1012.07,491.83l.52,2.55-3.85.79.38,1.85-2,.4-.37-1.85-7.38,1.51c-.7.15-.89.47-.76,1.1l.19.95-2.4.49-.27-1.32a3,3,0,0,1,2.49-3.72l7.6-1.56-.26-1.27,2-.4.26,1.27Z"/><path d="M1009.6,499.31l.52,2.55-1.35.28v.05a4.15,4.15,0,0,1,2.18,3,4.32,4.32,0,0,1-.43,2.85l-2.58-1.4a2.6,2.6,0,0,0,.28-1.8,2.46,2.46,0,0,0-3.16-1.93l-7.62,1.57-.53-2.55Z"/><path d="M1001.39,518v-.05c-1-.34-1.56-1.13-1.91-2.86-.58-2.82.75-4.82,2.95-5.27,2-.41,4,.63,4.6,3.35l.72,3.53,1.32-.27c1.21-.25,1.47-1.11,1.09-2.94-.27-1.32-.65-1.9-1.46-2.19l1.11-2.32a4.89,4.89,0,0,1,2.73,3.9c.64,3.12,0,5.48-3.09,6.12l-8.65,1.78-.52-2.55Zm4.25-.87L1005,514c-.3-1.5-1-2.08-2-1.88s-1.46,1-1.11,2.72c.44,2.13.81,2.81,2.79,2.4Z"/><path d="M1014.47,526.2l.31,1.52c.17.83.65,1.27,1.75,1,.65-.14,1-.29,1.27-.68a4,4,0,0,0,.07-2.31c-.43-1.83-1.08-2.35-2.11-2.19l-13.8,2.83-.52-2.55,13.79-2.83c2.8-.57,4.61,1.4,5.24,4.47.6,2.9-.64,5.24-3.22,5.76a2.88,2.88,0,0,1-3.19-1.24,2.78,2.78,0,0,1-2.4,2.4l-4.52.92a3.52,3.52,0,0,1-4.32-2.78l-.33-1.57,2.4-.5.18.91c.26,1.22.67,1.58,1.67,1.37l4.45-.91c.95-.2,1.39-.7,1.18-1.7l-.3-1.48Z"/><path d="M1010,538.06a2.9,2.9,0,0,0-2.5,3.67,4.06,4.06,0,0,0,1.8,2.52l-1.2,2.17a5.94,5.94,0,0,1-3-4.15c-.53-2.6.1-5.88,5.29-6.95,4.93-1,7.09,1.43,7.6,3.88a5.25,5.25,0,0,1-4.28,6.32l-2.1.44Zm3.2,4.91c1.91-.47,2.71-1.77,2.4-3.27s-1.57-2.42-3.5-2.07Z"/><path d="M958.58,329.12l33.12-6.81-6.81-33.13L951.77,296Zm25.13-18.27c1.54,7.51-4,11.53-9.08,12.56s-11.69-.47-13.23-8l-3.69-17.94,6.53-1.34,3.56,17.29c.65,3.16,2.23,5.17,5.7,4.46s4.1-3.18,3.45-6.34l-3.56-17.3,6.63-1.36Z"/><line x1="289.68" y1="518.94" x2="958.27" y2="389.7" style="fill:none;stroke:#000;stroke-miterlimit:10;stroke-width:2.45891092881287px"/><line x1="937.86" y1="286.71" x2="1315.29" y2="202.96" style="fill:none;stroke:#000;stroke-miterlimit:10;stroke-width:2.45891092881287px"/><polyline points="1284.56 15.77 182.31 244.46 3.16 183.94" style="fill:none;stroke:#000;stroke-miterlimit:10;stroke-width:2.45891092881287px"/><line x1="997.98" y1="583.7" x2="1396.84" y2="494.75" style="fill:none;stroke:#000;stroke-miterlimit:10;stroke-width:2.45891092881287px"/><path d="M1301.36,638.2,218.3,845s-22.51,3.21-30.33,17.12c-7.61,13.54-5.66,32.3-5.66,32.3L198.8,997.16" style="fill:none;stroke:#000;stroke-miterlimit:10;stroke-width:2.45891092881287px"/><polyline points="372.68 926.05 276.34 453.71 274.69 368.06 294.64 336.81 924.75 212.82" style="fill:none;stroke:#000;stroke-miterlimit:10;stroke-width:2.45891092881287px"/><polyline points="503.2 459.17 452.69 189.4 447.51 51.48" style="fill:none;stroke:#000;stroke-miterlimit:10;stroke-width:2.45891092881287px"/><line x1="804.41" y1="894.73" x2="684.25" y2="260.52" style="fill:none;stroke:#000;stroke-miterlimit:10;stroke-width:2.45891092881287px"/><polyline points="1046.04 788.41 1019.32 689.97 880.4 4.04" style="fill:none;stroke:#000;stroke-miterlimit:10;stroke-width:2.45891092881287px"/><path d="M878.31,69.12A16.91,16.91,0,1,1,859.94,53.8,16.92,16.92,0,0,1,878.31,69.12Z" style="fill:#fff"/><path d="M880.32,68.79a19,19,0,1,0-17.23,20.66,19,19,0,0,0,17.23-20.66m-2.85,2.85c.22,2.46-1.41,4.27-4.43,4.54a16,16,0,0,1-3.49-.09l-.08-2.79a6.6,6.6,0,0,0,2.82.29c1.06-.09,1.75-.5,1.68-1.25s-.48-1.1-2.42-1.58a3.64,3.64,0,0,1-3-3.46c-.21-2.26,1.48-3.86,4.22-4.11a14.48,14.48,0,0,1,3.32.11l.09,2.48a6.54,6.54,0,0,0-2.63-.38c-1.13.1-1.6.63-1.53,1.31s.51,1.06,2.25,1.56c2.19.63,3.08,1.65,3.24,3.37m-10.3.28c.27,3-1.25,4.91-4.37,5.19-3.29.3-5-1.27-5.22-3.84l-.77-8.49,3.43-.32.73,8.09c.13,1.4.67,2,1.66,1.92s1.49-.76,1.33-2.43l-.71-7.85,3.19-.29ZM855.78,74c.22,2.4-1.28,3.71-4.5,4l-4.08.38-1.15-12.65,4.39-.4c3.11-.28,4.54,1,4.71,2.79a2.79,2.79,0,0,1-2,3.12A2.66,2.66,0,0,1,855.78,74m-3.83-5c-.1-1-.78-1.38-1.78-1.29l-.65.06.26,2.84.65-.06c1-.09,1.59-.73,1.52-1.55m.63,5c-.09-1-.52-1.51-1.58-1.41l-1,.09.28,3,1-.08a1.37,1.37,0,0,0,1.37-1.65"/><path d="M951.66,426a16.91,16.91,0,1,1-18.37-15.32A16.91,16.91,0,0,1,951.66,426Z" style="fill:#fff"/><path d="M953.68,425.64a19,19,0,1,0-17.23,20.66,19.06,19.06,0,0,0,17.23-20.66m-2.86,2.85c.23,2.46-1.4,4.27-4.42,4.55a16.81,16.81,0,0,1-3.5-.1l-.08-2.79a6.64,6.64,0,0,0,2.83.29c1.06-.09,1.75-.5,1.68-1.25s-.48-1.1-2.42-1.58a3.64,3.64,0,0,1-3-3.46c-.21-2.26,1.48-3.86,4.22-4.11a14.48,14.48,0,0,1,3.32.11l.09,2.48a6.57,6.57,0,0,0-2.63-.38c-1.13.1-1.6.63-1.54,1.31s.51,1.06,2.25,1.56c2.2.63,3.09,1.66,3.24,3.37m-10.3.28c.28,3-1.24,4.91-4.36,5.2-3.29.29-5-1.28-5.22-3.85l-.77-8.49,3.43-.31.73,8.08c.13,1.41.67,2,1.66,1.92s1.49-.75,1.33-2.43l-.71-7.85,3.19-.29Zm-11.38,2.1c.22,2.4-1.29,3.71-4.5,4l-4.08.37-1.15-12.65,4.39-.39c3.11-.29,4.54,1,4.71,2.78a2.79,2.79,0,0,1-2,3.12,2.66,2.66,0,0,1,2.63,2.76m-3.84-5c-.09-1-.77-1.38-1.77-1.29l-.65.06.26,2.84.65-.06c1-.09,1.59-.73,1.51-1.55m.64,5c-.09-1-.52-1.5-1.59-1.41l-1,.1.28,3,.95-.08a1.37,1.37,0,0,0,1.38-1.65"/><path d="M1150.11,636.81a16.91,16.91,0,1,1-18.37-15.31A16.9,16.9,0,0,1,1150.11,636.81Z" style="fill:#fff"/><path d="M1152.12,636.48a19,19,0,1,0-17.22,20.67,19,19,0,0,0,17.22-20.67m-2.85,2.85c.22,2.47-1.41,4.28-4.42,4.55a16.75,16.75,0,0,1-3.5-.09l-.08-2.8a6.51,6.51,0,0,0,2.83.3c1.06-.1,1.75-.51,1.68-1.26s-.48-1.1-2.42-1.57a3.66,3.66,0,0,1-3-3.46c-.2-2.26,1.48-3.86,4.22-4.11a14.56,14.56,0,0,1,3.33.11l.09,2.48a6.41,6.41,0,0,0-2.63-.39c-1.13.11-1.6.64-1.54,1.32s.51,1.06,2.25,1.56c2.2.63,3.09,1.65,3.24,3.36m-10.3.28c.27,3-1.25,4.92-4.36,5.2-3.29.3-5-1.27-5.22-3.84l-.78-8.5,3.43-.31.74,8.08c.12,1.41.66,2,1.66,1.93s1.48-.76,1.33-2.44l-.71-7.84,3.18-.29Zm-11.38,2.11c.22,2.4-1.29,3.71-4.51,4l-4.07.37-1.15-12.64,4.38-.4c3.12-.28,4.55,1,4.71,2.78a2.76,2.76,0,0,1-2,3.12,2.67,2.67,0,0,1,2.64,2.77m-3.84-5c-.09-1-.78-1.38-1.77-1.29l-.65.06.26,2.84.65-.06c1-.09,1.59-.73,1.51-1.55m.63,5c-.09-1-.51-1.51-1.58-1.41l-1,.09.27,3,1-.09a1.36,1.36,0,0,0,1.37-1.64"/><polyline points="631.28 1032.03 526.74 473.43 503.2 459.17 487.36 480.62 589.52 1034.86" style="fill:none;stroke:#000;stroke-miterlimit:10;stroke-width:2.45891092881287px"/><path d="M229.68,216.77a6.26,6.26,0,0,1-5.13,6.46,6.44,6.44,0,0,1-6.25-2c-.8-.92-1.11-1.4-2-5.67s-.83-4.83-.49-6a6.47,6.47,0,0,1,4.88-4.39,6.41,6.41,0,0,1,7.36,3.92l-2.84.61a3.66,3.66,0,0,0-3.94-1.83,3.51,3.51,0,0,0-2.47,1.88c-.5,1.05-.59,1.59.19,5.23s1.09,4.1,2,4.85a3.46,3.46,0,0,0,3,.7,3.74,3.74,0,0,0,2.87-3.14Z"/><path d="M230.66,210.06a5.46,5.46,0,0,1,7.67-1.65c1.21.86,1.84,1.82,2.42,4.54s.42,3.88-.32,5.16a5.48,5.48,0,0,1-7.68,1.66c-1.21-.87-1.83-1.83-2.42-4.57S229.91,211.35,230.66,210.06Zm6.28.58a2.79,2.79,0,0,0-4.09.88c-.33.78-.37,1.31,0,3.13s.66,2.31,1.27,2.88a2.65,2.65,0,0,0,2.25.48,2.58,2.58,0,0,0,1.84-1.36c.33-.78.37-1.31,0-3.13S237.56,211.21,236.94,210.64Z"/><path d="M240.85,201l2.55-.55,3.12,14.49c.12.57.51.8,1.14.67l.87-.19.51,2.39-1.12.24c-1.84.4-3.41-.1-3.9-2.37Z"/><path d="M248.29,204.72l2.54-.54,1.63,7.53a2.57,2.57,0,1,0,5-1.08l-1.63-7.53,2.55-.55,2.72,12.64-2.54.55-.29-1.35h0a4.16,4.16,0,0,1-3,2.21,4.35,4.35,0,0,1-5.18-3.48Z"/><path d="M261.72,201.83l2.55-.55.29,1.35h.05a4.14,4.14,0,0,1,3-2.21,4.58,4.58,0,0,1,3.92.88,5,5,0,0,1,3.63-2.51,4.34,4.34,0,0,1,5.16,3.48l1.82,8.41-2.55.54-1.62-7.53a2.58,2.58,0,1,0-5,1.08l1.63,7.53-2.54.55-1.63-7.53a2.57,2.57,0,1,0-5,1.08l1.62,7.53-2.54.55Z"/><path d="M281.61,192.19l2.55-.55,1.39,6.46a4.74,4.74,0,0,1,2.94-2.2,4.24,4.24,0,0,1,3.75.92c.89.74,1.27,1.53,1.93,4.62s.65,4,.15,5a4.24,4.24,0,0,1-3,2.38,4.55,4.55,0,0,1-3.58-.77l.28,1.32-2.54.55Zm5,10.88c.4,1.84,1,3.91,3.34,3.4s2.09-2.51,1.67-4.48-1-3.89-3.36-3.38S286.23,201.25,286.62,203.07Z"/><path d="M294.52,189.41l2.55-.55.55,2.55-2.55.54Zm1.11,5.11,2.54-.55,2.72,12.65-2.54.54Z"/><path d="M310.55,203.36h-.05c-.33,1-1.12,1.57-2.84,1.95-2.82.6-4.82-.71-5.3-2.91-.43-2,.59-4,3.31-4.62l3.52-.76-.29-1.32c-.25-1.2-1.12-1.46-2.94-1.06-1.32.28-1.89.66-2.18,1.48L301.45,195a4.88,4.88,0,0,1,3.87-2.76c3.12-.68,5.49-.09,6.16,3l1.86,8.62-2.54.55Zm-.91-4.24-3,.66c-1.5.32-2.07,1.07-1.87,2s1,1.45,2.74,1.08c2.12-.45,2.79-.84,2.37-2.81Z"/><path d="M323.8,200.3a4.59,4.59,0,0,1-2.95,2.17,4.21,4.21,0,0,1-3.75-.91c-.89-.75-1.27-1.53-1.94-4.65s-.64-4-.14-5a4.2,4.2,0,0,1,3-2.38,4.78,4.78,0,0,1,3.59.79l-1.39-6.46,2.54-.54,3.83,17.75-2.54.55Zm-6.09-3.93c.42,2,1,3.91,3.37,3.39s2-2.63,1.64-4.48-1-3.88-3.34-3.37S317.29,194.42,317.71,196.37Z"/><path d="M335.76,197.93h-.05c-.34,1-1.13,1.57-2.84,1.94-2.82.61-4.83-.71-5.3-2.9-.44-2,.59-4,3.31-4.63l3.51-.75-.28-1.33c-.26-1.19-1.13-1.45-2.95-1.06-1.32.29-1.89.67-2.18,1.49l-2.32-1.09a4.86,4.86,0,0,1,3.86-2.76c3.12-.68,5.49-.09,6.16,3l1.86,8.62-2.54.55Zm-.92-4.24-3,.66c-1.49.32-2.06,1.06-1.86,2s1,1.45,2.73,1.08c2.12-.46,2.8-.84,2.37-2.81Z"/><path d="M339.16,185.14l2.54-.55.29,1.35H342a4.14,4.14,0,0,1,3-2.21,4.58,4.58,0,0,1,3.92.88,5.07,5.07,0,0,1,3.63-2.51,4.36,4.36,0,0,1,5.17,3.48l1.81,8.41-2.55.55L355.37,187a2.57,2.57,0,1,0-5,1.08l1.62,7.53-2.54.55-1.63-7.54a2.57,2.57,0,1,0-5,1.09l1.62,7.53-2.54.54Z"/><path d="M360.3,180.59l2.54-.55.29,1.35.05,0a4.12,4.12,0,0,1,3-2.2,4.55,4.55,0,0,1,3.92.87,5.06,5.06,0,0,1,3.64-2.5,4.34,4.34,0,0,1,5.16,3.48l1.81,8.4-2.55.55-1.62-7.53a2.58,2.58,0,1,0-5,1.08l1.63,7.53-2.54.55L369,184.07a2.57,2.57,0,1,0-5,1.08l1.62,7.53-2.54.55Z"/><path d="M756.88,410.18a8.42,8.42,0,0,0,5.41.78c2.2-.44,3.33-1.7,3-3.18a2.37,2.37,0,0,0-2.8-1.94c-.82.06-1.47.08-2.42.14-3.16.18-5.21-1.49-5.72-4.07-.6-3.06,1.1-5.63,4.78-6.36a10.71,10.71,0,0,1,6.14.71l-1.06,2.53a8.46,8.46,0,0,0-4.67-.51c-1.66.33-2.81,1.44-2.48,3.14.2,1,1.12,1.86,3,1.78.49,0,1.19-.05,2.06-.12a5.18,5.18,0,0,1,5.89,4.17c.65,3.27-1.4,5.66-5.23,6.41a10.17,10.17,0,0,1-7.29-1.1Z"/><path d="M772.41,406a2.91,2.91,0,0,0,3.65,2.53,4.09,4.09,0,0,0,2.53-1.78l2.17,1.21a6,6,0,0,1-4.18,3c-2.6.51-5.87-.14-6.9-5.34-1-4.94,1.48-7.09,3.94-7.57a5.24,5.24,0,0,1,6.28,4.32l.42,2.1Zm4.94-3.16c-.46-1.92-1.76-2.73-3.26-2.43s-2.42,1.55-2.09,3.48Z"/><path d="M780.43,391.51,783,391l2.87,14.54c.12.58.5.81,1.13.69l.87-.17.48,2.4-1.13.22c-1.85.37-3.41-.16-3.86-2.43Z"/><path d="M799.24,404.17a6.05,6.05,0,0,1-4.12,3.1c-2.92.58-6.12-.71-7-5.34s1.55-7.07,4.47-7.64a6,6,0,0,1,5,1.3l-1.54,2a3.4,3.4,0,0,0-2.84-.81c-2.08.41-3.07,1.83-2.52,4.61s2,3.68,4.08,3.27a3.4,3.4,0,0,0,2.31-1.84Z"/><path d="M797.8,388.07l2.55-.5,1.28,6.48h0a4.15,4.15,0,0,1,3-2.15,4.34,4.34,0,0,1,5.1,3.57l1.66,8.43-2.55.5-1.49-7.55a2.57,2.57,0,1,0-5,1l1.49,7.56-2.55.5Z"/><path d="M813.19,391.9a5,5,0,0,1,3.53-2.39,5.08,5.08,0,0,1,4.18.86c1.18.89,1.79,1.86,2.33,4.59s.35,3.88-.41,5.15a5.48,5.48,0,0,1-7.71,1.52c-1.19-.88-1.8-1.85-2.34-4.61S812.42,393.17,813.19,391.9Zm6.27.68a2.64,2.64,0,0,0-2.23-.52,2.61,2.61,0,0,0-1.87,1.33c-.34.77-.4,1.3,0,3.13s.62,2.32,1.23,2.9a2.58,2.58,0,0,0,2.23.52,2.61,2.61,0,0,0,1.87-1.33c.34-.77.4-1.3,0-3.13S820.07,393.16,819.46,392.58Z"/><path d="M832.71,390.46h-.05l-.89,9.4-2.26.45L823,388.43l2.71-.53,4.18,8.4h0l1.12-9.45,1.85-.37,4.64,8.32h0l.67-9.37,2.7-.53-1.55,13.49-2.25.44Z"/><path d="M845.89,391.49a2.89,2.89,0,0,0,3.65,2.53,4.07,4.07,0,0,0,2.53-1.77l2.16,1.21a5.94,5.94,0,0,1-4.17,3c-2.61.52-5.88-.13-6.91-5.34-1-4.93,1.49-7.08,3.94-7.56a5.25,5.25,0,0,1,6.29,4.31l.41,2.11Zm4.94-3.16c-.46-1.91-1.76-2.72-3.26-2.42s-2.43,1.54-2.1,3.48Z"/><path d="M854.92,382.11l2.56-.5.27,1.35h0a4.1,4.1,0,0,1,3-2.15,4.22,4.22,0,0,1,2.84.45l-1.41,2.56a2.55,2.55,0,0,0-1.8-.29,2.45,2.45,0,0,0-1.95,3.14l1.5,7.63-2.55.51Z"/><path d="M872.56,387.31a8.41,8.41,0,0,0,5.41.78c2.2-.44,3.33-1.7,3-3.18a2.37,2.37,0,0,0-2.8-1.94c-.83.06-1.47.08-2.42.14-3.16.18-5.21-1.49-5.72-4.07-.6-3.05,1.1-5.62,4.78-6.35a10.55,10.55,0,0,1,6.14.71l-1.06,2.52a8.46,8.46,0,0,0-4.67-.51c-1.66.33-2.81,1.44-2.48,3.15.2,1,1.12,1.85,3,1.77.49,0,1.19-.05,2.06-.12,3.4-.25,5.41,1.74,5.89,4.17.65,3.28-1.4,5.66-5.23,6.42a10.22,10.22,0,0,1-7.29-1.11Z"/><path d="M884.11,372.34l2.55-.51.76,3.86,1.85-.37.39,1.95-1.85.37,1.46,7.38c.13.7.46.9,1.09.78l.95-.19.47,2.4-1.32.26a3,3,0,0,1-3.7-2.52l-1.5-7.61-1.28.25-.39-1.95,1.28-.25Z"/><path d="M891.57,374.87l2.56-.51.27,1.35h0a4.15,4.15,0,0,1,3-2.16,4.32,4.32,0,0,1,2.85.45l-1.42,2.57a2.55,2.55,0,0,0-1.8-.29,2.44,2.44,0,0,0-2,3.14l1.51,7.63-2.56.5Z"/><path d="M903.28,383.08l2.55-.5.51,2.55-2.55.51Z"/><path d="M534.93,139.56l11.38-2.29.51,2.55-8.68,1.75,1.07,5.25,7.4-1.49.48,2.4-7.4,1.49,1.53,7.6-2.7.55Z"/><path d="M548,136.92l2.55-.51,2.93,14.53a.83.83,0,0,0,1.13.68l.88-.17.48,2.39-1.13.23c-1.85.37-3.41-.14-3.87-2.42Z"/><path d="M555.41,140.77l2.56-.51,1.52,7.55a2.57,2.57,0,1,0,5-1L563,139.24l2.55-.51,2.56,12.67-2.55.52-.27-1.35h-.06a4.13,4.13,0,0,1-3,2.16,4.35,4.35,0,0,1-5.14-3.54Z"/><path d="M578.15,148a4.53,4.53,0,0,1-3,2.13,4.29,4.29,0,0,1-3.66-.87c-.92-.8-1.23-1.23-1.94-4.74s-.58-4-.05-5.14a4.32,4.32,0,0,1,3-2.22,4.39,4.39,0,0,1,3.58.84l-.27-1.35,2.55-.52,2.49,12.38a5.28,5.28,0,0,1-4.37,6.68A6.25,6.25,0,0,1,571.7,154l1.66-2a3.72,3.72,0,0,0,2.71.66,2.69,2.69,0,0,0,2.35-3.34Zm-4.93-1.14a2.61,2.61,0,0,0,4-.81c.34-.67.31-1-.1-3.05s-.53-2.39-1.1-2.88a2.61,2.61,0,0,0-4,.82c-.33.66-.31,1,.1,3.07S572.65,146.38,573.22,146.86Z"/><path d="M580.58,130.36l2.55-.51,1.31,6.47h0a4.14,4.14,0,0,1,3-2.16,4.34,4.34,0,0,1,5.12,3.55l1.69,8.42-2.55.52-1.52-7.56a2.57,2.57,0,1,0-5,1l1.52,7.55-2.55.52Z"/><path d="M603.92,143h-.06c-.34,1-1.14,1.56-2.86,1.91-2.83.57-4.81-.78-5.26-3-.4-2,.65-4,3.37-4.58l3.52-.71-.26-1.32c-.24-1.21-1.1-1.47-2.93-1.11-1.33.27-1.9.65-2.2,1.46l-2.31-1.12a4.87,4.87,0,0,1,3.9-2.71c3.12-.63,5.49,0,6.12,3.11l1.74,8.65-2.54.52Zm-.86-4.25-3,.62c-1.5.3-2.08,1-1.89,2s1,1.46,2.72,1.11c2.13-.43,2.81-.8,2.41-2.77Z"/><path d="M608.13,132.17l-1.28.26-.39-2,1.28-.26-.34-1.68a3.21,3.21,0,0,1,2.75-4.14l1.66-.34.48,2.4-1.45.3c-.83.16-1.05.5-.89,1.27l.33,1.68,2.56-.52.39,1.95-2.55.51,2.16,10.73-2.55.52Z"/><path d="M617.58,135.83a2.9,2.9,0,0,0,3.66,2.52,4.06,4.06,0,0,0,2.52-1.79l2.17,1.21a5.93,5.93,0,0,1-4.16,3c-2.6.53-5.88-.12-6.93-5.32-1-4.92,1.46-7.08,3.92-7.58a5.25,5.25,0,0,1,6.3,4.3l.42,2.1Zm4.93-3.18c-.47-1.91-1.77-2.71-3.27-2.41s-2.42,1.56-2.08,3.49Z"/><path d="M626.59,126.42l2.55-.52.27,1.36.05,0a4.12,4.12,0,0,1,3-2.16,4.33,4.33,0,0,1,5.11,3.55l1.7,8.42-2.55.52L635.2,130a2.57,2.57,0,1,0-5,1l1.52,7.55-2.55.52Z"/><path d="M642.06,132.46a5.44,5.44,0,0,0,4.33.82c1.45-.29,2.39-1.06,2.17-2.13-.18-.9-.91-1-1.8-.94l-2.29.26c-2.14.24-3.94-.7-4.38-2.87-.52-2.58,1.26-4.32,3.94-4.86a7.41,7.41,0,0,1,5.32.73l-1.2,2.17a5.73,5.73,0,0,0-3.64-.49c-1.62.32-2,1.08-1.86,2,.11.55.62,1,1.91.86l2.13-.27c2.66-.36,4,1,4.45,3.06.49,2.47-1.52,4.36-4.47,5a8.13,8.13,0,0,1-6-1.15Z"/><path d="M651.18,117.45l2.55-.51.78,3.85,1.85-.38.39,2-1.85.37,1.49,7.38c.14.7.46.89,1.09.76l.95-.19.48,2.4-1.32.27a3,3,0,0,1-3.71-2.5l-1.53-7.61-1.27.26-.4-2,1.28-.26Z"/><path d="M658.65,120l2.56-.51.27,1.35h0a4.14,4.14,0,0,1,3-2.17,4.36,4.36,0,0,1,2.85.44l-1.4,2.58a2.57,2.57,0,0,0-1.81-.29,2.45,2.45,0,0,0-1.93,3.15l1.53,7.62-2.55.52Z"/><path d="M677.26,128.22h0c-.34,1-1.14,1.56-2.87,1.91-2.82.57-4.81-.78-5.25-3-.41-2,.64-4,3.36-4.58l3.54-.71-.28-1.32c-.23-1.2-1.1-1.47-2.92-1.1-1.33.26-1.9.64-2.21,1.45l-2.3-1.12a4.87,4.87,0,0,1,3.9-2.71c3.12-.63,5.49,0,6.12,3.11l1.74,8.65-2.55.52Zm-.85-4.25-3,.61c-1.5.31-2.08,1-1.9,2s1,1.46,2.73,1.11c2.12-.43,2.8-.8,2.4-2.77Z"/><path d="M685.56,115.18l1.52-.31c.83-.17,1.28-.65,1.06-1.75a1.69,1.69,0,0,0-.68-1.27,4.07,4.07,0,0,0-2.3-.08c-1.84.42-2.36,1.08-2.21,2.11l2.79,13.8-2.55.52-2.79-13.81c-.56-2.79,1.42-4.6,4.5-5.22,2.9-.58,5.22.66,5.75,3.24a2.91,2.91,0,0,1-1.26,3.19,2.77,2.77,0,0,1,2.38,2.41l.92,4.53a3.54,3.54,0,0,1-2.8,4.31l-1.57.31-.49-2.4.9-.18c1.22-.24,1.58-.65,1.38-1.66l-.89-4.44c-.2-1-.7-1.4-1.7-1.2l-1.48.3Z"/><path d="M697.4,119.74a2.91,2.91,0,0,0,3.66,2.52,4.1,4.1,0,0,0,2.52-1.79l2.17,1.2a5.93,5.93,0,0,1-4.16,3c-2.6.53-5.88-.11-6.93-5.31-1-4.93,1.46-7.09,3.92-7.58a5.24,5.24,0,0,1,6.3,4.29l.43,2.1Zm4.93-3.18c-.47-1.91-1.77-2.71-3.27-2.41s-2.42,1.55-2.08,3.49Z"/><path d="M668.69,245.88a8.46,8.46,0,0,0,5.47.8c2.22-.43,3.37-1.7,3.07-3.19a2.39,2.39,0,0,0-2.82-2c-.83.06-1.48.08-2.44.14-3.2.17-5.26-1.53-5.77-4.14-.6-3.08,1.13-5.68,4.85-6.4a10.77,10.77,0,0,1,6.21.74l-1.08,2.55a8.46,8.46,0,0,0-4.72-.53c-1.68.32-2.85,1.44-2.52,3.16.2,1,1.13,1.89,3,1.81.49,0,1.2-.05,2.08-.11,3.44-.25,5.46,1.77,5.94,4.23.64,3.31-1.44,5.71-5.31,6.46a10.28,10.28,0,0,1-7.37-1.14Z"/><path d="M680.41,230.79l2.58-.5.76,3.9,1.87-.37.38,2-1.87.37,1.45,7.46c.14.71.47.91,1.1.79l1-.19.48,2.43-1.35.26a3,3,0,0,1-3.72-2.56l-1.5-7.69-1.29.25-.38-2,1.29-.25Z"/><path d="M688,233.37l2.58-.5.27,1.36h.05a4.18,4.18,0,0,1,3-2.17,4.4,4.4,0,0,1,2.88.46l-1.44,2.59a2.61,2.61,0,0,0-1.82-.3,2.49,2.49,0,0,0-2,3.17l1.5,7.72-2.58.5Z"/><path d="M699.75,241.71l2.59-.5.5,2.58-2.58.5Z"/><path d="M556.47,253.7l2.56-.5,7.37,10.63,2.74-12.6,2.56-.5,3.47,17.83-2.7.53L570.3,258h0l-2.06,9.29-2.25.44-5.4-7.84h0L562.65,271l-2.7.53Z"/><path d="M585,265.47h0c-.36,1-1.15,1.55-2.88,1.89-2.83.55-4.81-.81-5.24-3-.39-2,.67-4,3.4-4.56l3.53-.69-.26-1.33c-.23-1.2-1.09-1.47-2.92-1.12-1.33.26-1.91.63-2.21,1.45L576.1,257a4.91,4.91,0,0,1,3.93-2.69c3.12-.61,5.48,0,6.09,3.16l1.69,8.66-2.55.5Zm-.83-4.26-3.06.6c-1.5.29-2.08,1-1.9,1.95s1,1.48,2.72,1.14c2.12-.42,2.81-.78,2.42-2.76Z"/><path d="M587.54,247.65l2.55-.5,1.27,6.48h0a4.12,4.12,0,0,1,3-2.14,4.33,4.33,0,0,1,5.09,3.58l1.64,8.44-2.55.49-1.47-7.56a2.58,2.58,0,1,0-5,1l1.48,7.57-2.56.49Z"/><path d="M600.88,245.05l2.55-.5,2.84,14.55a.83.83,0,0,0,1.12.69l.88-.17.46,2.4-1.12.22c-1.85.36-3.41-.17-3.86-2.45Z"/><path d="M609.28,250.27a5.48,5.48,0,0,1,7.71-1.5c1.19.88,1.79,1.86,2.32,4.59s.34,3.88-.43,5.15a5,5,0,0,1-3.53,2.38,5.07,5.07,0,0,1-4.18-.88c-1.18-.89-1.79-1.86-2.32-4.61S608.51,251.54,609.28,250.27Zm6.27.7a2.65,2.65,0,0,0-2.24-.52,2.62,2.62,0,0,0-1.87,1.32c-.34.77-.4,1.3,0,3.13s.61,2.32,1.22,2.91a2.8,2.8,0,0,0,4.11-.81c.34-.76.39-1.29,0-3.12S616.16,251.55,615.55,251Z"/><path d="M628.81,248.88h0l-.93,9.41-2.25.44-6.53-11.91,2.7-.52,4.16,8.41H626l1.14-9.45,1.85-.36,4.62,8.33h0l.69-9.36,2.7-.53-1.58,13.48-2.25.44Z"/><path d="M642,250a2.89,2.89,0,0,0,3.64,2.54,4.05,4.05,0,0,0,2.54-1.77l2.16,1.22a6,6,0,0,1-4.19,2.95c-2.6.5-5.87-.16-6.89-5.37-1-4.93,1.51-7.07,4-7.55a5.25,5.25,0,0,1,6.28,4.34l.41,2.1Zm4.95-3.14c-.46-1.92-1.76-2.73-3.26-2.44s-2.43,1.54-2.1,3.48Z"/><path d="M651,240.6l2.55-.5.27,1.35h0a4.09,4.09,0,0,1,3-2.14,4.35,4.35,0,0,1,2.84.45l-1.42,2.57a2.51,2.51,0,0,0-1.8-.3,2.46,2.46,0,0,0-2,3.14l1.49,7.63-2.56.5Z"/><path d="M567.45,310.07,572.72,300a2.74,2.74,0,0,0,.3-1.91,2.52,2.52,0,0,0-2.95-2,2.65,2.65,0,0,0-2.1,3.09l-2.55.5a5.18,5.18,0,1,1,10.16-2,4.79,4.79,0,0,1-.47,3.34l-4.33,8.3,6.81-1.32.5,2.55-10.17,2Z"/><path d="M578.35,305.19l3.47-13.93,2.86-.56-3.55,13.95,4.66-.91-1-5.13,2.55-.5,1,5.13,1.43-.27.47,2.4-1.43.28.52,2.65-2.55.5-.52-2.66-7.44,1.45Z"/><path d="M1001,293.72l6.88-1.51c3.46-.77,5.69.8,6.3,3.59a4,4,0,0,1-1.77,4.39v.05a4.08,4.08,0,0,1,3.79,3.45,5,5,0,0,1-3.82,6.12l-7.48,1.65Zm3.22,1.8,1.12,5.08,3.89-.85c1.94-.43,2.61-1.78,2.3-3.18s-1.48-2.34-3.43-1.91Zm1.65,7.48,1.17,5.32,4.14-.91a2.74,2.74,0,1,0-1.18-5.33Z"/><path d="M1018.08,296.86a5,5,0,0,1,3.47-2.47,5.06,5.06,0,0,1,4.2.77c1.21.86,1.83,1.82,2.43,4.53s.44,3.88-.29,5.16a5.48,5.48,0,0,1-7.68,1.69c-1.21-.85-1.83-1.81-2.44-4.55S1017.34,298.14,1018.08,296.86Zm6.28.54a2.79,2.79,0,0,0-4.08.9c-.33.78-.37,1.31,0,3.13s.67,2.31,1.29,2.87a2.58,2.58,0,0,0,2.25.47,2.62,2.62,0,0,0,1.84-1.37c.32-.77.36-1.3,0-3.12S1025,298,1024.36,297.4Z"/><path d="M1039.4,302.47a4.6,4.6,0,0,1-2.94,2.19,4.21,4.21,0,0,1-3.75-.9c-.9-.74-1.28-1.52-2-4.63s-.67-4-.17-5a4.21,4.21,0,0,1,3-2.39,4.78,4.78,0,0,1,3.59.77l-1.42-6.45,2.54-.56,3.91,17.74-2.54.56Zm-6.11-3.9c.43,2,1,3.9,3.38,3.38s2-2.65,1.63-4.49-1-3.88-3.36-3.36S1032.86,296.62,1033.29,298.57Z"/><path d="M1052.23,299.64a4.59,4.59,0,0,1-3,2.19,4.22,4.22,0,0,1-3.75-.9c-.89-.74-1.27-1.52-2-4.63s-.66-4-.17-5a4.26,4.26,0,0,1,3-2.39,4.79,4.79,0,0,1,3.6.77l-1.43-6.45,2.54-.56,3.91,17.74-2.53.56Zm-6.12-3.9c.44,2,1,3.9,3.39,3.38s2-2.65,1.62-4.49-1-3.88-3.36-3.36S1045.68,293.79,1046.11,295.74Z"/><path d="M1054,282l2.54-.56.56,2.54-2.54.56Zm1.13,5.11,2.54-.56,2.78,12.63-2.54.56Z"/><path d="M1060.88,285.87l2.54-.56.3,1.34h0a4.16,4.16,0,0,1,3-2.22,4.34,4.34,0,0,1,5.18,3.46l1.86,8.39-2.54.56-1.66-7.52a2.57,2.57,0,1,0-5,1.1l1.66,7.53-2.54.56Z"/><path d="M1076.46,291.63a5.48,5.48,0,0,0,4.35.74c1.44-.32,2.37-1.1,2.13-2.17-.2-.9-.93-1-1.82-.91l-2.29.3c-2.13.28-3.95-.62-4.43-2.79-.56-2.56,1.19-4.33,3.86-4.92a7.38,7.38,0,0,1,5.33.62l-1.16,2.19a5.84,5.84,0,0,0-3.65-.42c-1.61.36-2,1.12-1.83,2,.12.54.64,1,1.93.82l2.13-.31c2.66-.4,4,1,4.5,3,.54,2.47-1.44,4.39-4.38,5a8.14,8.14,0,0,1-6.05-1Z"/><path d="M1085.31,276.45l2.54-.56.85,3.84,1.84-.41.43,1.95-1.84.4,1.62,7.35c.15.7.48.89,1.11.75l.94-.21.53,2.39-1.32.3a3,3,0,0,1-3.75-2.44l-1.67-7.58-1.27.28-.43-1.94,1.27-.28Z"/><path d="M1092.83,278.82l2.54-.56.3,1.34h0a4.14,4.14,0,0,1,3-2.22,4.3,4.3,0,0,1,2.85.39l-1.36,2.6a2.5,2.5,0,0,0-1.81-.25,2.46,2.46,0,0,0-1.88,3.18l1.68,7.6-2.54.56Z"/><path d="M1111.59,286.75h-.06c-.33,1-1.11,1.58-2.83,2-2.82.62-4.83-.69-5.31-2.88-.44-2,.57-4,3.29-4.64l3.51-.78-.29-1.32c-.27-1.19-1.13-1.45-3-1.05-1.32.3-1.89.68-2.18,1.5l-2.33-1.08a4.9,4.9,0,0,1,3.86-2.78c3.11-.69,5.48-.11,6.17,3l1.9,8.62-2.54.56Zm-.94-4.24-3,.68c-1.5.33-2.06,1.08-1.86,2s1,1.44,2.75,1.07c2.11-.47,2.79-.86,2.35-2.82Z"/><path d="M1119.64,273.56l1.52-.34c.82-.18,1.26-.67,1-1.77-.14-.64-.3-1-.69-1.25a4.08,4.08,0,0,0-2.31,0c-1.84.45-2.34,1.12-2.17,2.15l3,13.75-2.54.56-3-13.75c-.61-2.79,1.33-4.63,4.4-5.31,2.88-.64,5.24.57,5.81,3.14a2.92,2.92,0,0,1-1.2,3.21,2.78,2.78,0,0,1,2.43,2.37l1,4.5a3.52,3.52,0,0,1-2.72,4.36l-1.57.35-.52-2.39.89-.2c1.22-.27,1.57-.69,1.36-1.68l-1-4.43c-.21-1-.73-1.39-1.72-1.17l-1.47.33Z"/><path d="M1131.56,277.9a2.9,2.9,0,0,0,3.71,2.45,4,4,0,0,0,2.49-1.83l2.19,1.16a5.94,5.94,0,0,1-4.11,3.05c-2.59.57-5.88,0-7-5.19-1.08-4.91,1.33-7.11,3.77-7.65a5.24,5.24,0,0,1,6.38,4.18l.47,2.09Zm4.87-3.27c-.49-1.9-1.81-2.68-3.31-2.35s-2.39,1.6-2,3.53Z"/><circle cx="558.57" cy="779.05" r="81.3" style="fill:#fff;stroke:#000;stroke-miterlimit:10;stroke-width:2.45891092881287px"/><line x1="579.73" y1="317.98" x2="580.26" y2="320.76" style="fill:none;stroke:#000;stroke-miterlimit:10;stroke-width:2.45891092881287px"/><line x1="581.39" y1="326.84" x2="589.94" y2="372.45" style="fill:none;stroke:#000;stroke-miterlimit:10;stroke-width:2.45891092881287px;stroke-dasharray:6.1867218017578125,6.1867218017578125"/><polyline points="590.51 375.49 591.03 378.28 593.82 377.74" style="fill:none;stroke:#000;stroke-miterlimit:10;stroke-width:2.45891092881287px"/><line x1="600.39" y1="376.47" x2="623.39" y2="372.03" style="fill:none;stroke:#000;stroke-miterlimit:10;stroke-width:2.45891092881287px;stroke-dasharray:6.69320821762085,6.69320821762085"/><line x1="626.68" y1="371.4" x2="629.46" y2="370.86" style="fill:none;stroke:#000;stroke-miterlimit:10;stroke-width:2.45891092881287px"/><path d="M450.28,317.71l2.26,11.56-2.59.51L448.23,321l-5.34,1,1.46,7.52-2.43.48-1.47-7.52-7.73,1.5-.53-2.74Z"/><path d="M446.32,333.1a5.57,5.57,0,0,1,1.52,7.83c-.89,1.2-1.88,1.82-4.65,2.36s-3.94.34-5.23-.44a5.06,5.06,0,0,1-2.41-3.58,5.11,5.11,0,0,1,.88-4.24c.9-1.2,1.89-1.82,4.69-2.36S445,332.32,446.32,333.1Zm-.71,6.36a2.83,2.83,0,0,0-.81-4.16c-.78-.35-1.32-.41-3.18,0s-2.36.62-2.95,1.23a2.84,2.84,0,0,0,.81,4.17c.78.35,1.32.4,3.18,0S445,340.08,445.61,339.46Z"/><path d="M450.13,344.66l.5,2.59-1.37.27v.05a4.21,4.21,0,0,1,2.18,3.05,4.41,4.41,0,0,1-3.64,5.17l-8.56,1.67-.51-2.59,7.68-1.5a2.61,2.61,0,1,0-1-5.1l-7.67,1.49-.51-2.59Z"/><path d="M456.71,357.59l.51,2.6-3.92.76.37,1.88-2,.39-.37-1.88-7.49,1.46c-.72.14-.92.47-.79,1.1l.19,1-2.44.47-.27-1.34a3,3,0,0,1,2.57-3.75l7.73-1.51-.26-1.29,2-.39.26,1.3Z"/><path d="M443.7,374.22v-.05c-1-.36-1.57-1.17-1.91-2.92-.56-2.87.82-4.89,3.05-5.32,2.06-.4,4.09.68,4.63,3.45l.7,3.58,1.34-.26c1.22-.24,1.5-1.11,1.14-3-.26-1.35-.64-1.94-1.47-2.25l1.16-2.34a5,5,0,0,1,2.73,4c.62,3.18,0,5.57-3.2,6.19L443.07,377l-.51-2.59Zm4.32-.84-.6-3.1c-.3-1.53-1.05-2.12-2-1.93s-1.49,1-1.15,2.75c.42,2.16.8,2.85,2.8,2.46Z"/><path d="M456.58,377.78l.51,2.6-1.37.26v.05a4.21,4.21,0,0,1,2.17,3.06,4.39,4.39,0,0,1-3.63,5.16l-8.56,1.68-.51-2.6,7.67-1.49a2.61,2.61,0,1,0-1-5.11l-7.67,1.5-.51-2.6Z"/><path d="M452.19,394.73a3,3,0,0,0-2.58,3.7A4.14,4.14,0,0,0,451.4,401l-1.23,2.19a6.06,6.06,0,0,1-3-4.25c-.52-2.64.16-6,5.44-7,5-1,7.18,1.53,7.67,4a5.34,5.34,0,0,1-4.4,6.37l-2.14.41Zm3.19,5c1.94-.46,2.77-1.78,2.47-3.31s-1.56-2.46-3.53-2.13Z"/><path d="M452.81,406.07a5.55,5.55,0,0,0-.86,4.39c.29,1.47,1.06,2.43,2.15,2.21.92-.18,1.06-.91,1-1.82l-.24-2.33c-.24-2.17.73-4,2.94-4.42,2.61-.51,4.37,1.31,4.9,4a7.51,7.51,0,0,1-.77,5.4l-2.19-1.24a5.88,5.88,0,0,0,.52-3.69c-.32-1.64-1.09-2.08-2-1.9-.56.11-1,.62-.89,1.94l.26,2.16c.34,2.7-1.07,4.09-3.13,4.49-2.52.49-4.42-1.57-5-4.56a8.28,8.28,0,0,1,1.21-6.12Z"/><path d="M468,415.43l.51,2.59-3.91.77.36,1.88-2,.38-.37-1.88-7.49,1.46c-.71.14-.91.47-.79,1.11l.19,1-2.44.48-.26-1.35a3,3,0,0,1,2.56-3.75l7.73-1.5-.25-1.29,2-.39.25,1.3Z"/><path d="M465.4,423l.5,2.59-1.37.27v.05a4.18,4.18,0,0,1,2.18,3.05,4.36,4.36,0,0,1-.47,2.89l-2.6-1.44a2.59,2.59,0,0,0,.3-1.83,2.48,2.48,0,0,0-3.18-2L453,428.11l-.5-2.59Z"/><path d="M456.88,441.84v0c-1-.36-1.57-1.17-1.91-2.92-.56-2.87.82-4.88,3.05-5.32,2.06-.4,4.09.68,4.63,3.45l.7,3.58,1.35-.26c1.22-.24,1.49-1.11,1.13-3-.26-1.35-.64-1.93-1.46-2.25l1.15-2.33a5,5,0,0,1,2.73,4c.62,3.18,0,5.57-3.2,6.2l-8.79,1.71-.51-2.59Zm4.32-.84-.6-3.1c-.3-1.52-1-2.12-2-1.93s-1.49,1-1.15,2.75c.42,2.16.8,2.86,2.8,2.46Z"/><path d="M470.07,450.36l.3,1.55c.17.84.65,1.29,1.77,1.08a1.72,1.72,0,0,0,1.29-.68,4.08,4.08,0,0,0,.1-2.34c-.42-1.87-1.08-2.4-2.13-2.25l-14,2.74-.51-2.6,14-2.73c2.84-.55,4.66,1.47,5.27,4.59.57,2.95-.71,5.31-3.32,5.82a3,3,0,0,1-3.24-1.3,2.81,2.81,0,0,1-2.45,2.41l-4.6.9a3.59,3.59,0,0,1-4.36-2.88l-.31-1.6,2.44-.47.17.91c.25,1.25.66,1.62,1.68,1.42l4.52-.88c1-.19,1.42-.7,1.22-1.72l-.29-1.5Z"/><path d="M465.37,462.36a2.93,2.93,0,0,0-2.58,3.69,4.14,4.14,0,0,0,1.79,2.58l-1.23,2.19a6.06,6.06,0,0,1-3-4.24c-.52-2.64.16-6,5.44-7,5-1,7.18,1.53,7.67,4a5.33,5.33,0,0,1-4.4,6.37l-2.14.42Zm3.19,5c1.94-.46,2.77-1.78,2.47-3.31s-1.56-2.46-3.53-2.13Z"/><rect x="613.41" y="345.04" width="46.82" height="46.82" transform="translate(-56.88 123.36) rotate(-10.59)" style="fill:#ccc8a6"/><polygon points="612.93 366.81 629.46 370.86 615.35 379.88 612.93 366.81"/></svg>