<?xml version="1.0" encoding="UTF-8" standalone="no"?>
<!DOCTYPE svg PUBLIC "-//W3C//DTD SVG 1.1//EN" "http://www.w3.org/Graphics/SVG/1.1/DTD/svg11.dtd">
<svg width="100%" height="100%" viewBox="0 0 4657 460" version="1.1" xmlns="http://www.w3.org/2000/svg" xmlns:xlink="http://www.w3.org/1999/xlink" xml:space="preserve" xmlns:serif="http://www.serif.com/" style="fill-rule:evenodd;clip-rule:evenodd;stroke-linejoin:round;stroke-miterlimit:2;">
    <g id="ArtBoard1" transform="matrix(0.773331,0,0,0.368295,126.052972,-60.768615)">
        <rect x="-163" y="165" width="6022" height="1249" style="fill:none;"/>
        <clipPath id="_clip1">
            <rect x="-163" y="165" width="6022" height="1249"/>
        </clipPath>
        <g clip-path="url(#_clip1)">
            <g transform="matrix(17.714888,0,0,37.19705,708.681809,791.384948)">
                <path d="M0,9.131C2.038,11.124 4.264,12.143 7.415,12.143C10.103,12.143 12.048,11.124 12.048,9.131C12.048,7.463 10.798,6.953 9.176,6.814L5.005,6.443C1.111,6.118 -1.761,3.801 -1.761,-0.231C-1.761,-5.004 2.038,-7.461 6.998,-7.461C11.123,-7.461 13.902,-6.209 16.22,-4.263L13.3,-0.833C11.447,-2.131 9.547,-3.012 6.998,-3.012C3.986,-3.012 2.966,-1.806 2.966,-0.184C2.966,0.835 3.707,1.855 6.071,2.04L9.963,2.318C14.831,2.643 16.776,5.609 16.776,9.362C16.776,13.95 12.513,16.592 7.044,16.592C3.245,16.592 -0.279,15.202 -3.292,12.375L0,9.131Z" style="fill:rgb(25,23,20);fill-rule:nonzero;"/>
            </g>
            <g transform="matrix(17.714888,0,0,37.19705,1101.730884,1398.202747)">
                <path d="M0,-30.633L4.728,-30.633L4.728,-23.496L8.156,-23.496L8.156,-19.881L4.728,-19.881L4.728,-6.209C4.728,-4.912 5.238,-4.449 6.395,-4.449L8.156,-4.449L8.156,0L5.701,0C2.41,0 0,-2.085 0,-5.793L0,-19.881L-2.364,-19.881L-2.364,-23.496L0,-23.496L0,-30.633Z" style="fill:rgb(25,23,20);fill-rule:nonzero;"/>
            </g>
            <g transform="matrix(17.714888,0,0,37.19705,1557.660725,894.863422)">
                <path d="M0,3.568L-5.655,3.568C-8.434,3.568 -9.732,4.681 -9.732,6.395C-9.732,7.971 -8.481,9.361 -5.284,9.361C-1.344,9.361 0,8.944 0,5.283L0,3.568ZM0,11.447L-0.093,11.447C-1.065,13.069 -2.688,13.81 -5.886,13.81C-11.123,13.81 -14.182,10.705 -14.182,6.627C-14.182,2.873 -11.586,-0.325 -6.535,-0.325L0,-0.325L0,-2.781C0,-5.006 -1.437,-5.793 -4.819,-5.793C-7.277,-5.793 -8.434,-5.33 -9.27,-3.986L-12.975,-6.813C-11.169,-9.315 -8.575,-10.242 -5.051,-10.242C0.742,-10.242 4.728,-8.296 4.728,-2.503L4.728,13.532L0,13.532L0,11.447Z" style="fill:rgb(25,23,20);fill-rule:nonzero;"/>
            </g>
            <g transform="matrix(17.714888,0,0,37.19705,1807.841001,619.062173)">
                <path d="M0,9.175C0,12.836 0.233,16.498 4.681,16.498C9.085,16.498 9.316,12.605 9.316,9.175C9.316,5.792 9.085,1.9 4.681,1.9C0.233,1.9 0,5.56 0,9.175M9.316,18.491C7.833,20.113 5.655,21.225 3.246,21.225C0.371,21.225 -1.714,19.927 -3.058,18.166C-4.354,16.498 -4.726,14.968 -4.726,9.175C-4.726,3.428 -4.354,1.9 -3.058,0.231C-1.714,-1.53 0.371,-2.828 3.246,-2.828C5.655,-2.828 7.555,-1.715 9.316,-0.047L9.316,-12.05L14.044,-12.05L14.044,20.947L9.316,20.947L9.316,18.491Z" style="fill:rgb(25,23,20);fill-rule:nonzero;"/>
            </g>
            <g transform="matrix(17.714888,0,0,37.19705,2166.016547,1398.202747)">
                <path d="M0,-30.633L4.726,-30.633L4.726,-23.496L8.155,-23.496L8.155,-19.881L4.726,-19.881L4.726,-6.209C4.726,-4.912 5.236,-4.449 6.394,-4.449L8.155,-4.449L8.155,0L5.7,0C2.41,0 0,-2.085 0,-5.793L0,-19.881L-2.364,-19.881L-2.364,-23.496L0,-23.496L0,-30.633Z" style="fill:rgb(25,23,20);fill-rule:nonzero;"/>
            </g>
            <g transform="matrix(17.714888,0,0,37.19705,2585.749406,1398.228785)">
                <path d="M0,-32.997L4.728,-32.997L4.728,-6.07C4.728,-5.005 5.332,-4.448 6.489,-4.448L8.111,-4.448L8.111,0L6.026,0C2.597,0 0,-1.483 0,-5.699L0,-32.997Z" style="fill:rgb(25,23,20);fill-rule:nonzero;"/>
            </g>
            <g transform="matrix(17.714888,0,0,37.19705,3037.415274,894.870862)">
                <path d="M0,3.568L-5.655,3.568C-8.434,3.568 -9.732,4.681 -9.732,6.396C-9.732,7.971 -8.481,9.362 -5.284,9.362C-1.344,9.362 0,8.944 0,5.283L0,3.568ZM0,11.446L-0.093,11.446C-1.065,13.068 -2.688,13.81 -5.886,13.81C-11.123,13.81 -14.182,10.706 -14.182,6.627C-14.182,2.874 -11.586,-0.325 -6.534,-0.325L0,-0.325L0,-2.781C0,-5.006 -1.437,-5.793 -4.819,-5.793C-7.277,-5.793 -8.434,-5.33 -9.269,-3.986L-12.975,-6.813C-11.169,-9.315 -8.573,-10.242 -5.051,-10.242C0.742,-10.242 4.728,-8.296 4.728,-2.503L4.728,13.532L0,13.532L0,11.446Z" style="fill:rgb(25,23,20);fill-rule:nonzero;"/>
            </g>
            <g transform="matrix(17.714888,0,0,37.19705,3207.995472,1387.884286)">
                <path d="M0,-23.218L4.726,-23.218L4.726,-20.716L4.819,-20.716C6.304,-22.569 8.434,-23.496 10.937,-23.496C14.598,-23.496 18.769,-20.669 18.769,-15.34L18.769,0.278L14.042,0.278L14.042,-13.718C14.042,-16.916 12.05,-18.769 9.408,-18.769C6.719,-18.769 4.726,-16.916 4.726,-13.718L4.726,0.278L0,0.278L0,-23.218Z" style="fill:rgb(25,23,20);fill-rule:nonzero;"/>
            </g>
            <g transform="matrix(17.714888,0,0,37.19705,3701.193895,619.024976)">
                <path d="M0,9.177C0,12.838 0.233,16.5 4.681,16.5C9.085,16.5 9.316,12.607 9.316,9.177C9.316,5.794 9.085,1.901 4.681,1.901C0.233,1.901 0,5.562 0,9.177M9.316,18.493C7.833,20.114 5.655,21.226 3.246,21.226C0.371,21.226 -1.714,19.928 -3.058,18.168C-4.356,16.5 -4.726,14.97 -4.726,9.177C-4.726,3.43 -4.356,1.901 -3.058,0.233C-1.714,-1.529 0.371,-2.827 3.246,-2.827C5.655,-2.827 7.554,-1.714 9.316,-0.046L9.316,-12.049L14.043,-12.049L14.043,20.948L9.316,20.948L9.316,18.493Z" style="fill:rgb(25,23,20);fill-rule:nonzero;"/>
            </g>
            <g transform="matrix(17.714515,0,0,37.196268,4267.157159,910.373913)">
                <path d="M0,-6.766L-2.364,-6.766L-2.364,-10.381L0,-10.381L0,-13.486C0,-17.889 2.735,-19.882 6.396,-19.882L9.455,-19.882L9.455,-15.432L6.767,-15.432C5.239,-15.432 4.728,-14.923 4.728,-13.486L4.728,-10.381L9.455,-10.381L9.455,-6.766L4.728,-6.766L4.728,13.116L0,13.116L0,-6.766Z" style="fill:rgb(25,23,20);fill-rule:nonzero;"/>
            </g>
            <g transform="matrix(17.714515,0,0,37.196268,4495.780693,1398.217844)">
                <path d="M0,-32.997L4.726,-32.997L4.726,-6.072C4.726,-5.006 5.329,-4.448 6.488,-4.448L8.109,-4.448L8.109,0L6.023,0C2.594,0 0,-1.483 0,-5.701L0,-32.997Z" style="fill:rgb(25,23,20);fill-rule:nonzero;"/>
            </g>
            <g transform="matrix(17.714515,0,0,37.196268,4704.468311,1408.569565)">
                <path d="M0,-23.775L4.726,-23.775L4.726,-9.779C4.726,-6.582 6.719,-4.726 9.408,-4.726C12.048,-4.726 14.041,-6.582 14.041,-9.779L14.041,-23.775L18.769,-23.775L18.769,-0.278L14.041,-0.278L14.041,-2.78L13.949,-2.78C12.467,-0.927 10.333,0 7.878,0C4.17,0 0,-2.826 0,-8.156L0,-23.775Z" style="fill:rgb(25,23,20);fill-rule:nonzero;"/>
            </g>
            <g transform="matrix(17.714515,0,0,37.196268,5155.644614,791.405371)">
                <path d="M0,9.131C2.038,11.124 4.264,12.144 7.415,12.144C10.103,12.144 12.05,11.124 12.05,9.131C12.05,7.462 10.798,6.953 9.176,6.814L5.005,6.443C1.112,6.118 -1.761,3.801 -1.761,-0.232C-1.761,-5.004 2.038,-7.461 6.998,-7.461C11.123,-7.461 13.902,-6.21 16.22,-4.263L13.3,-0.833C11.447,-2.131 9.547,-3.011 6.998,-3.011C3.986,-3.011 2.966,-1.806 2.966,-0.184C2.966,0.836 3.707,1.855 6.071,2.04L9.964,2.318C14.831,2.642 16.776,5.608 16.776,9.363C16.776,13.95 12.513,16.592 7.044,16.592C3.245,16.592 -0.279,15.202 -3.29,12.374L0,9.131Z" style="fill:rgb(25,23,20);fill-rule:nonzero;"/>
            </g>
            <g transform="matrix(17.714515,0,0,37.196268,5555.845627,791.405371)">
                <path d="M0,9.131C2.038,11.124 4.264,12.144 7.415,12.144C10.103,12.144 12.048,11.124 12.048,9.131C12.048,7.462 10.798,6.953 9.176,6.814L5.005,6.443C1.111,6.118 -1.761,3.801 -1.761,-0.232C-1.761,-5.004 2.038,-7.461 6.998,-7.461C11.123,-7.461 13.902,-6.21 16.22,-4.263L13.3,-0.833C11.447,-2.131 9.547,-3.011 6.998,-3.011C3.986,-3.011 2.966,-1.806 2.966,-0.184C2.966,0.836 3.707,1.855 6.071,2.04L9.963,2.318C14.831,2.642 16.776,5.608 16.776,9.363C16.776,13.95 12.513,16.592 7.044,16.592C3.245,16.592 -0.279,15.202 -3.291,12.374L0,9.131Z" style="fill:rgb(25,23,20);fill-rule:nonzero;"/>
            </g>
            <g transform="matrix(4.982138,0,0,10.461305,-813.453548,-4292.945009)">
                <rect x="130.766" y="434.945" width="108.028" height="23.735" style="fill:rgb(213,205,170);"/>
            </g>
            <g transform="matrix(4.982138,0,0,10.461305,316.184966,938.456321)">
                <path d="M0,-23.724C-0.049,-23.724 -0.097,-23.717 -0.147,-23.716L-83.581,-23.716C-83.674,-23.718 -83.765,-23.73 -83.858,-23.73C-83.951,-23.73 -84.041,-23.718 -84.133,-23.716L-84.459,-23.716L-84.459,-23.7C-90.825,-23.389 -95.892,-18.217 -95.892,-11.862C-95.892,-5.508 -90.825,-0.335 -84.459,-0.024L-84.459,0.006L-0.055,0.006L-0.055,0.004C-0.037,0.004 -0.018,0.006 0,0.006C6.645,0.006 12.03,-5.306 12.03,-11.859C12.03,-18.413 6.645,-23.724 0,-23.724" style="fill:rgb(213,205,170);fill-rule:nonzero;"/>
            </g>
            <g transform="matrix(4.982138,0,0,10.461305,223.970574,1071.945706)">
                <path d="M0,32.178C-0.646,32.178 -1.298,32.17 -1.958,32.157C-11.51,32.451 -19.694,28.984 -26.949,25.914C-32.887,23.401 -38.013,21.224 -42.848,21.346C-52.987,22.307 -55.094,23.226 -66.702,31.462L-78.996,14.138C-65.056,4.246 -59.544,1.569 -44.515,0.165L-43.963,0.127C-34.312,-0.273 -26.003,3.248 -18.671,6.351C-12.62,8.91 -7.4,11.12 -2.482,10.919L-2.154,10.906L-1.826,10.912C4.151,11.029 8.076,11.114 21.841,2.158L33.426,19.965C16.896,30.721 8.935,32.178 0,32.178" style="fill:rgb(213,205,170);fill-rule:nonzero;"/>
            </g>
        </g>
    </g>
</svg>
