<?xml version="1.0"?>

<svg width="100%" height="100%" viewBox="155 100 740 415" version="1.1" xmlns="http://www.w3.org/2000/svg" xmlns:xlink="http://www.w3.org/1999/xlink" xml:space="preserve" xmlns:serif="http://www.serif.com/" style="fill-rule:evenodd;clip-rule:evenodd;stroke-linejoin:round;stroke-miterlimit:2;">
    <g transform="matrix(4.166667,0,0,4.166667,0,0)">
        <path d="M140.931,47.586C142.514,49.134 144.243,49.926 146.69,49.926C148.778,49.926 150.289,49.134 150.289,47.586C150.289,46.29 149.318,45.894 148.058,45.787L144.818,45.498C141.794,45.247 139.563,43.447 139.563,40.315C139.563,36.607 142.514,34.7 146.366,34.7C149.57,34.7 151.729,35.672 153.529,37.184L151.261,39.847C149.822,38.839 148.346,38.155 146.366,38.155C144.027,38.155 143.235,39.091 143.235,40.351C143.235,41.143 143.81,41.935 145.646,42.079L148.669,42.295C152.45,42.547 153.961,44.851 153.961,47.766C153.961,51.33 150.65,53.381 146.402,53.381C143.451,53.381 140.714,52.302 138.374,50.106L140.931,47.586Z" style="fill:rgb(35,31,32);fill-rule:nonzero;"></path>
        <path d="M158.164,29.372L161.836,29.372L161.836,34.916L164.499,34.916L164.499,37.724L161.836,37.724L161.836,48.342C161.836,49.35 162.232,49.71 163.131,49.71L164.499,49.71L164.499,53.165L162.592,53.165C160.036,53.165 158.164,51.546 158.164,48.666L158.164,37.724L156.328,37.724L156.328,34.916L158.164,34.916L158.164,29.372Z" style="fill:rgb(35,31,32);fill-rule:nonzero;"></path>
        <path d="M178.154,45.426L173.762,45.426C171.603,45.426 170.595,46.29 170.595,47.622C170.595,48.846 171.567,49.926 174.05,49.926C177.11,49.926 178.154,49.602 178.154,46.758L178.154,45.426ZM178.154,51.546L178.082,51.546C177.327,52.806 176.066,53.381 173.582,53.381C169.515,53.381 167.139,50.97 167.139,47.802C167.139,44.887 169.155,42.403 173.078,42.403L178.154,42.403L178.154,40.495C178.154,38.767 177.038,38.155 174.411,38.155C172.502,38.155 171.603,38.515 170.954,39.559L168.076,37.363C169.479,35.42 171.494,34.7 174.231,34.7C178.73,34.7 181.826,36.211 181.826,40.711L181.826,53.165L178.154,53.165L178.154,51.546Z" style="fill:rgb(35,31,32);fill-rule:nonzero;"></path>
        <path d="M189.123,44.022C189.123,46.866 189.304,49.71 192.759,49.71C196.179,49.71 196.359,46.686 196.359,44.022C196.359,41.395 196.179,38.372 192.759,38.372C189.304,38.372 189.123,41.215 189.123,44.022ZM196.359,51.258C195.207,52.518 193.515,53.381 191.644,53.381C189.411,53.381 187.792,52.373 186.748,51.006C185.741,49.71 185.452,48.522 185.452,44.022C185.452,39.559 185.741,38.372 186.748,37.076C187.792,35.707 189.411,34.7 191.644,34.7C193.515,34.7 194.991,35.564 196.359,36.859L196.359,27.537L200.031,27.537L200.031,53.165L196.359,53.165L196.359,51.258Z" style="fill:rgb(35,31,32);fill-rule:nonzero;"></path>
        <path d="M204.827,29.372L208.498,29.372L208.498,34.916L211.161,34.916L211.161,37.724L208.498,37.724L208.498,48.342C208.498,49.35 208.894,49.71 209.793,49.71L211.161,49.71L211.161,53.165L209.254,53.165C206.699,53.165 204.827,51.546 204.827,48.666L204.827,37.724L202.991,37.724L202.991,34.916L204.827,34.916L204.827,29.372Z" style="fill:rgb(35,31,32);fill-rule:nonzero;"></path>
        <path d="M140.39,60.037L144.062,60.037L144.062,80.951C144.062,81.778 144.531,82.21 145.43,82.21L146.69,82.21L146.69,85.665L145.07,85.665C142.407,85.665 140.39,84.513 140.39,81.239L140.39,60.037Z" style="fill:rgb(35,31,32);fill-rule:nonzero;"></path>
        <path d="M160.193,77.926L155.801,77.926C153.642,77.926 152.634,78.79 152.634,80.122C152.634,81.346 153.606,82.426 156.089,82.426C159.149,82.426 160.193,82.102 160.193,79.258L160.193,77.926ZM160.193,84.045L160.121,84.045C159.366,85.305 158.105,85.881 155.621,85.881C151.554,85.881 149.178,83.47 149.178,80.302C149.178,77.387 151.194,74.903 155.118,74.903L160.193,74.903L160.193,72.995C160.193,71.267 159.077,70.655 156.45,70.655C154.541,70.655 153.642,71.015 152.994,72.059L150.115,69.863C151.518,67.92 153.534,67.2 156.27,67.2C160.769,67.2 163.865,68.711 163.865,73.211L163.865,85.665L160.193,85.665L160.193,84.045Z" style="fill:rgb(35,31,32);fill-rule:nonzero;"></path>
        <path d="M167.672,67.416L171.343,67.416L171.343,69.359L171.415,69.359C172.568,67.92 174.223,67.2 176.167,67.2C179.01,67.2 182.25,69.395 182.25,73.535L182.25,85.665L178.578,85.665L178.578,74.795C178.578,72.311 177.031,70.872 174.979,70.872C172.891,70.872 171.343,72.311 171.343,74.795L171.343,85.665L167.672,85.665L167.672,67.416Z" style="fill:rgb(35,31,32);fill-rule:nonzero;"></path>
        <path d="M189.296,76.523C189.296,79.367 189.477,82.21 192.932,82.21C196.352,82.21 196.532,79.187 196.532,76.523C196.532,73.895 196.352,70.872 192.932,70.872C189.477,70.872 189.296,73.715 189.296,76.523ZM196.532,83.758C195.38,85.018 193.688,85.881 191.817,85.881C189.584,85.881 187.965,84.873 186.921,83.506C185.913,82.21 185.625,81.022 185.625,76.523C185.625,72.059 185.913,70.872 186.921,69.576C187.965,68.207 189.584,67.2 191.817,67.2C193.688,67.2 195.163,68.064 196.532,69.359L196.532,60.037L200.203,60.037L200.203,85.665L196.532,85.665L196.532,83.758Z" style="fill:rgb(35,31,32);fill-rule:nonzero;"></path>
        <path d="M140.966,103.723L139.13,103.723L139.13,100.915L140.966,100.915L140.966,98.504C140.966,95.084 143.09,93.537 145.934,93.537L148.31,93.537L148.31,96.993L146.222,96.993C145.035,96.993 144.638,97.388 144.638,98.504L144.638,100.915L148.31,100.915L148.31,103.723L144.638,103.723L144.638,119.165L140.966,119.165L140.966,103.723Z" style="fill:rgb(35,31,32);fill-rule:nonzero;"></path>
        <path d="M150.99,93.537L154.661,93.537L154.661,114.449C154.661,115.277 155.129,115.71 156.029,115.71L157.288,115.71L157.288,119.165L155.668,119.165C153.005,119.165 150.99,118.013 150.99,114.737L150.99,93.537Z" style="fill:rgb(35,31,32);fill-rule:nonzero;"></path>
        <path d="M160.14,100.915L163.811,100.915L163.811,111.786C163.811,114.269 165.359,115.71 167.447,115.71C169.498,115.71 171.046,114.269 171.046,111.786L171.046,100.915L174.718,100.915L174.718,119.165L171.046,119.165L171.046,117.222L170.974,117.222C169.823,118.661 168.166,119.381 166.259,119.381C163.379,119.381 160.14,117.186 160.14,113.046L160.14,100.915Z" style="fill:rgb(35,31,32);fill-rule:nonzero;"></path>
        <path d="M179.922,113.586C181.505,115.134 183.234,115.926 185.681,115.926C187.769,115.926 189.281,115.134 189.281,113.586C189.281,112.29 188.309,111.894 187.049,111.786L183.809,111.498C180.786,111.246 178.554,109.446 178.554,106.314C178.554,102.607 181.505,100.699 185.357,100.699C188.561,100.699 190.72,101.671 192.52,103.183L190.252,105.847C188.813,104.839 187.337,104.155 185.357,104.155C183.018,104.155 182.226,105.091 182.226,106.351C182.226,107.143 182.801,107.935 184.637,108.078L187.661,108.294C191.441,108.546 192.952,110.85 192.952,113.766C192.952,117.329 189.641,119.381 185.393,119.381C182.442,119.381 179.705,118.301 177.367,116.105L179.922,113.586Z" style="fill:rgb(35,31,32);fill-rule:nonzero;"></path>
        <path d="M197.469,113.586C199.052,115.134 200.781,115.926 203.228,115.926C205.316,115.926 206.827,115.134 206.827,113.586C206.827,112.29 205.856,111.894 204.596,111.786L201.356,111.498C198.332,111.246 196.101,109.446 196.101,106.314C196.101,102.607 199.052,100.699 202.904,100.699C206.108,100.699 208.267,101.671 210.067,103.183L207.799,105.847C206.36,104.839 204.884,104.155 202.904,104.155C200.565,104.155 199.773,105.091 199.773,106.351C199.773,107.143 200.348,107.935 202.184,108.078L205.207,108.294C208.988,108.546 210.499,110.85 210.499,113.766C210.499,117.329 207.188,119.381 202.94,119.381C199.989,119.381 197.252,118.301 194.913,116.105L197.469,113.586Z" style="fill:rgb(35,31,32);fill-rule:nonzero;"></path>
        <rect x="42.12" y="34.649" width="83.906" height="18.434" style="fill:rgb(204,200,166);fill-rule:nonzero;"></rect>
        <path d="M116.662,66.807C116.624,66.807 116.587,66.812 116.548,66.812L51.744,66.812C51.672,66.811 51.601,66.802 51.529,66.802C51.457,66.802 51.387,66.811 51.315,66.812L51.062,66.812L51.062,66.825C46.118,67.066 42.183,71.083 42.183,76.02C42.183,80.955 46.118,84.973 51.062,85.214L51.062,85.238L116.619,85.238L116.619,85.236C116.633,85.236 116.648,85.238 116.662,85.238C121.823,85.238 126.006,81.112 126.006,76.022C126.006,70.932 121.823,66.807 116.662,66.807Z" style="fill:rgb(204,200,166);fill-rule:nonzero;"></path>
        <path d="M102.286,120.136C101.784,120.136 101.278,120.13 100.765,120.12C93.346,120.348 86.989,117.655 81.354,115.271C76.742,113.319 72.761,111.628 69.006,111.723C61.131,112.469 59.494,113.183 50.478,119.58L40.93,106.124C51.757,98.442 56.038,96.363 67.711,95.272L68.14,95.243C75.636,94.932 82.089,97.666 87.784,100.077C92.483,102.064 96.538,103.78 100.358,103.624L100.613,103.614L100.868,103.619C105.51,103.71 108.559,103.776 119.25,96.82L128.248,110.65C115.409,119.004 109.226,120.136 102.286,120.136Z" style="fill:rgb(204,200,166);fill-rule:nonzero;"></path>
    </g>
</svg>
